<svg width="100" height="100" viewBox="0 0 100 100" fill="none" xmlns="http://www.w3.org/2000/svg">
<g clip-path="url(#clip0_301_2)">
<path d="M68.4951 22.812C63.8051 18.122 57.2651 15.625 50.1551 15.625C43.0451 15.625 36.5951 18.031 31.8151 22.812C26.9451 27.682 24.5351 34.222 24.5351 41.24C24.5351 48.258 26.9451 54.798 31.8151 59.578C36.5951 64.358 43.0451 66.855 50.1551 66.855C54.4051 66.855 58.4751 65.718 62.0051 63.63L62.1851 63.54C62.4551 63.36 62.6351 63.27 62.8151 63.09C63.0851 62.82 63.2751 62.55 63.5451 62.19C63.7251 61.92 63.8151 61.74 63.9951 61.47C64.1751 61.2 64.2651 61.02 64.4451 60.75C66.6151 57.21 67.7551 53.15 67.7551 48.89C67.7551 48.8 67.7551 48.71 67.7551 48.62C67.7551 48.53 67.7551 48.53 67.7551 48.44C67.7551 48.26 67.7551 48.08 67.6651 47.9C67.6651 47.81 67.6651 47.72 67.6651 47.63C67.6651 47.54 67.6651 47.45 67.5751 47.27C67.5751 41.87 66.0151 36.91 63.1851 32.79C60.3551 28.67 56.3851 25.79 51.7951 24.65L51.6151 24.65C51.5251 24.56 51.4351 24.56 51.3451 24.56C51.2551 24.56 51.1651 24.56 51.0751 24.56C50.7151 24.56 50.4451 24.56 50.1551 24.56C45.9151 24.56 41.8451 25.79 38.3151 27.96C34.7851 30.13 32.1051 33.32 30.6451 37.15C29.1851 41.07 29.0951 45.43 30.2851 49.7C31.4751 53.96 33.8851 57.89 37.2251 60.89C40.5651 63.89 44.7051 65.71 49.1451 66.15C49.5051 66.15 49.8651 66.15 50.1551 66.15C52.4451 66.15 54.6451 65.71 56.6651 64.93L56.7551 64.93C56.9351 64.84 57.0251 64.84 57.1151 64.75C57.2951 64.66 57.4751 64.57 57.6551 64.48C57.8351 64.39 58.0151 64.3 58.1951 64.21C58.3751 64.12 58.5551 63.94 58.7351 63.85C61.4751 62.48 63.7251 60.49 65.3851 58.05C67.0451 55.61 68.0451 52.73 68.2251 49.79H50.1551L50.0651 49.79C49.9751 49.79 49.8851 49.79 49.7951 49.79C49.7051 49.79 49.6151 49.79 49.5251 49.79C49.2551 49.79 48.9851 49.88 48.7151 49.88C43.9351 49.88 39.8651 48.05 36.8751 44.86C33.8851 41.67 32.2251 37.55 32.2251 33.07C32.2251 28.59 33.8851 24.56 36.8751 21.37C39.8651 18.18 43.9351 16.35 48.7151 16.35C53.4951 16.35 57.5651 18.18 60.5551 21.37L75.4651 36.28C80.2451 31.5 82.6551 24.87 82.6551 17.85C82.6551 10.83 80.2451 4.29 75.4651 -0.58C70.6851 -5.36 64.1451 -7.85 57.1251 -7.85C50.1051 -7.85 43.5651 -5.36 38.7851 -0.58C33.9151 4.29 31.5051 10.83 31.5051 17.85C31.5051 20.68 32.0751 23.42 33.1151 26.07L33.2051 26.25C33.2951 26.43 33.3851 26.61 33.4751 26.79C33.5651 26.97 33.7451 27.24 33.8351 27.42C33.9251 27.6 34.0151 27.78 34.1051 27.96C34.1951 28.14 34.2851 28.32 34.4651 28.59C35.8351 31.24 36.7451 34.12 37.1851 37.15C37.2751 37.33 37.2751 37.51 37.3651 37.69C37.3651 37.87 37.3651 37.96 37.3651 38.14C37.3651 38.32 37.3651 38.5 37.3651 38.68C37.3651 39.46 37.2751 40.15 37.1851 40.88C37.0951 41.61 36.9151 42.34 36.7451 43C35.9651 46.28 34.2851 49.28 31.9951 51.72C29.7051 54.16 26.8251 55.99 23.5451 57.03C20.2651 58.07 16.7351 58.34 13.2951 57.87C9.85507 57.42 6.66507 56.19 3.92507 54.29C1.18507 52.39 -0.994932 49.89 -2.45493 47.02C-3.91493 44.15 -4.58493 40.97 -4.31493 37.79C-4.04493 34.61 -2.86493 31.52 -0.964932 28.78C0.935068 26.04 3.52507 23.75 6.55507 22.09L21.3751 7.27C16.5951 12.05 14.1851 18.59 14.1851 25.61C14.1851 32.63 16.5951 39.17 21.3751 43.95C26.1551 48.73 32.6951 51.22 39.7251 51.22C43.9651 51.22 48.0351 50 51.5651 47.83L51.6551 47.83C51.7451 47.74 51.8351 47.74 51.9251 47.65C52.0151 47.65 52.1051 47.56 52.1951 47.56C52.5551 47.38 52.8251 47.2 53.0951 47.02C53.3651 46.75 53.5451 46.48 53.8151 46.12C53.9951 45.85 54.0851 45.67 54.2651 45.4C54.4451 45.13 54.5351 44.95 54.7151 44.68C56.8851 41.14 58.0251 37.08 58.0251 32.82C58.0251 32.73 58.0251 32.64 58.0251 32.55C58.0251 32.46 58.0251 32.46 58.0251 32.37C58.0251 32.19 58.0251 32.01 57.9351 31.83C57.9351 31.74 57.9351 31.65 57.9351 31.56C57.9351 31.47 57.9351 31.38 57.8451 31.2C57.8451 25.8 56.2851 20.84 53.4551 16.72C50.6251 12.6 46.6551 9.72 42.0651 8.58L41.8851 8.58C41.7951 8.49 41.7051 8.49 41.6151 8.49C41.5251 8.49 41.4351 8.49 41.3451 8.49C40.9851 8.49 40.7151 8.49 40.4251 8.49C36.1851 8.49 32.1151 9.72 28.5851 11.89C25.0551 14.06 22.3751 17.25 20.9151 21.08C19.4551 24.91 19.3651 29.27 20.5551 33.54C21.7451 37.8 24.1551 41.73 27.4951 44.73C30.8351 47.73 34.9751 49.55 39.4151 49.99C39.7751 49.99 40.1351 49.99 40.4251 49.99C42.7151 49.99 44.9151 49.55 46.9351 48.77L47.0251 48.77C47.2051 48.68 47.2951 48.68 47.3851 48.59C47.5651 48.5 47.7451 48.41 47.9251 48.32C48.1051 48.23 48.2851 48.14 48.4651 48.05C48.6451 47.96 48.8251 47.78 49.0051 47.69C51.7451 46.32 53.9951 44.33 55.6551 41.89C57.3151 39.45 58.3151 36.57 58.4951 33.63H30.4251L30.3351 33.63C30.2451 33.63 30.1551 33.63 30.0651 33.63C29.9751 33.63 29.8851 33.63 29.7951 33.63C29.5251 33.63 29.2551 33.72 28.9851 33.72C24.2051 33.72 20.1351 31.89 17.1451 28.7C14.1551 25.51 12.4951 21.39 12.4951 16.91C12.4951 12.43 14.1551 8.4 17.1451 5.21C20.1351 2.02 24.2051 0.19 28.9851 0.19C33.7651 0.19 37.8351 2.02 40.8251 5.21L68.4951 22.812Z" fill="#224279"/>
</g>
<defs>
<clipPath id="clip0_301_2">
<rect width="100" height="100" fill="white"/>
</clipPath>
</defs>
</svg>
